<svg xmlns="http://www.w3.org/2000/svg" width="1920" height="1080" viewBox="0 0 1920 1080">
  <defs>
    <pattern id="hex" width="60" height="103.923" patternUnits="userSpaceOnUse" patternTransform="scale(1.5)">
      <path d="M30 0 L60 17.321 L60 51.961 L30 69.282 L0 51.961 L0 17.321 Z" fill="none" stroke="rgba(233,69,96,0.03)" stroke-width="1"/>
      <path d="M30 103.923 L60 86.602 L60 51.961 L30 69.282 L0 51.961 L0 86.602 Z" fill="none" stroke="rgba(233,69,96,0.03)" stroke-width="1"/>
    </pattern>
    <radialGradient id="glow1" cx="30%" cy="30%" r="50%">
      <stop offset="0%" stop-color="rgba(233,69,96,0.08)"/>
      <stop offset="100%" stop-color="transparent"/>
    </radialGradient>
    <radialGradient id="glow2" cx="70%" cy="70%" r="50%">
      <stop offset="0%" stop-color="rgba(15,52,96,0.10)"/>
      <stop offset="100%" stop-color="transparent"/>
    </radialGradient>
    <linearGradient id="line" x1="0%" y1="0%" x2="100%" y2="100%">
      <stop offset="0%" stop-color="rgba(233,69,96,0.02)"/>
      <stop offset="50%" stop-color="rgba(233,69,96,0.05)"/>
      <stop offset="100%" stop-color="rgba(233,69,96,0.02)"/>
    </linearGradient>
  </defs>
  <rect width="1920" height="1080" fill="#0a0a1a"/>
  <rect width="1920" height="1080" fill="url(#hex)"/>
  <rect width="1920" height="1080" fill="url(#glow1)"/>
  <rect width="1920" height="1080" fill="url(#glow2)"/>
  <line x1="0" y1="200" x2="1920" y2="280" stroke="url(#line)" stroke-width="0.5"/>
  <line x1="0" y1="800" x2="1920" y2="720" stroke="url(#line)" stroke-width="0.5"/>
  <line x1="400" y1="0" x2="500" y2="1080" stroke="url(#line)" stroke-width="0.3"/>
  <line x1="1400" y1="0" x2="1300" y2="1080" stroke="url(#line)" stroke-width="0.3"/>
</svg>
